<svg width="265" height="312" viewBox="0 0 265 312" fill="none" xmlns="http://www.w3.org/2000/svg">
<g clip-path="url(#clip0_50_238)">
<path d="M232.41 140.07C232.41 85.92 222.17 36.8199 134.36 36.8199C46.5501 36.8199 36.3101 85.92 36.3101 140.07C36.3101 194.22 74.4901 256.17 134.36 256.17C194.23 256.17 232.41 194.22 232.41 140.07Z" fill="#FFBDAB"/>
<path d="M134.36 261.17C72.7201 261.17 31.3101 198.55 31.3101 140.07C31.3101 114.91 33.3301 86.3399 48.3301 65.2399C64.3201 42.7499 92.4601 31.8199 134.36 31.8199C176.26 31.8199 204.4 42.7499 220.39 65.2399C235.39 86.3399 237.41 114.91 237.41 140.07C237.41 198.55 196 261.17 134.36 261.17ZM134.36 41.8199C48.4901 41.8199 41.3101 90.36 41.3101 140.07C41.3101 193.72 78.7001 251.17 134.36 251.17C190.02 251.17 227.41 193.72 227.41 140.07C227.41 90.36 220.23 41.8199 134.36 41.8199Z" fill="#ED8D77"/>
<path d="M134.36 61.77C57.0798 63 40.1298 102.36 54.1598 217.27C61.1098 274.13 72.3998 301.81 72.3998 301.81C5.25979 274.32 -6.04021 284.43 13.7698 141.41C30.1698 22.9901 64.9398 8.66004 104.46 24.37C143.98 40.08 134.35 61.77 134.35 61.77H134.36Z" fill="#D19E61"/>
<path d="M72.3899 306.81C71.7499 306.81 71.1099 306.69 70.4999 306.44C64.6499 304.04 59.3299 301.98 54.1799 299.98C27.0299 289.43 10.6399 283.06 3.6599 261.17C-3.1301 239.87 0.0699053 203.9 8.80991 140.74C18.1299 73.4501 34.2799 33.98 58.1599 20.0701C71.5399 12.2801 87.2899 12.16 106.31 19.72C123.28 26.47 134.08 35.2501 138.4 45.8301C142.36 55.5301 139.29 62.9701 138.93 63.7901C138.14 65.57 136.39 66.7301 134.44 66.7601C103.89 67.2501 84.0599 73.9101 72.0199 87.7301C54.4099 107.94 50.5599 146.5 59.1299 216.65C65.8899 272.01 76.9199 299.64 77.0299 299.91C77.7899 301.77 77.3499 303.91 75.9299 305.33C74.9699 306.28 73.6999 306.79 72.3999 306.79L72.3899 306.81ZM80.5299 24.1101C74.1599 24.1101 68.4599 25.64 63.1899 28.71C42.1299 40.9701 27.5899 78.0601 18.7199 142.1C10.3699 202.4 7.0099 238.75 13.1899 258.12C18.7199 275.46 31.7799 280.54 57.7999 290.65C59.8099 291.43 61.9399 292.26 64.1499 293.13C60.1799 280.21 53.7799 255.36 49.1999 217.88C40.1299 143.65 44.5599 104.04 64.4799 81.1701C77.9599 65.7001 98.9599 57.93 130.36 56.87C130.5 55 130.32 52.37 129.03 49.34C125.72 41.6 116.59 34.5701 102.63 29.0201C94.3999 25.7501 87.1199 24.1101 80.5499 24.1101H80.5299Z" fill="#9E6E39"/>
<path d="M101.42 32.98C129.79 77.06 213.61 78.01 217.16 148.56C220.71 219.12 191.5 306.58 191.5 306.58C287.6 279.55 257.56 221.48 247.43 145.48C237.3 69.48 211.88 -2.48998 134.36 5.62002C101.43 10.69 93.61 23.62 101.43 32.98H101.42Z" fill="#D19E61"/>
<path d="M191.51 311.59C190.16 311.59 188.85 311.04 187.89 310.04C186.61 308.7 186.18 306.76 186.77 305.01C187.06 304.14 215.63 217.6 212.18 148.82C210.17 108.79 180.91 92.96 149.93 76.2C129.93 65.38 109.26 54.19 97.3899 35.94C93.6499 31.32 92.6599 25.97 94.5899 20.85C97.1799 13.99 106.05 4.93 133.6 0.690004C133.68 0.680004 133.76 0.670004 133.84 0.660004C171.07 -3.23 200.18 10.44 220.35 41.29C235.76 64.86 246.24 98.73 252.39 144.84C254.01 156.98 256.14 168.65 258.2 179.93C263.71 210.14 268.48 236.23 261.4 258.69C253.51 283.73 231.73 300.48 192.86 311.41C192.41 311.53 191.96 311.6 191.51 311.6V311.59ZM135 10.58C114.76 13.71 105.68 19.76 103.94 24.37C103.69 25.02 102.95 27 105.26 29.77C105.39 29.93 105.51 30.09 105.63 30.27C116.08 46.51 134.83 56.65 154.68 67.39C185.23 83.92 219.86 102.66 222.16 148.31C225.08 206.44 206.49 274.64 199.12 299.03C228.82 289.2 245.67 275.29 251.86 255.66C258.19 235.56 253.64 210.6 248.36 181.7C246.28 170.3 244.13 158.51 242.48 146.13C229.32 47.43 195.16 4.36 135 10.58Z" fill="#9E6E39"/>
<path d="M156.29 124.26C166.44 113.66 180.5 118.04 187.82 123.45C190.02 125.07 188.72 128.21 185.85 128.26L158.78 128.72C156.11 128.77 154.58 126.05 156.29 124.26Z" fill="#9E6E39"/>
<path d="M112.42 124.26C102.27 113.66 88.2098 118.04 80.8898 123.45C78.6898 125.07 79.9898 128.21 82.8598 128.26L109.93 128.72C112.6 128.77 114.13 126.05 112.42 124.26Z" fill="#9E6E39"/>
<g opacity="0.4">
<path d="M95.5209 184.957C96.3423 180.835 91.7479 176.445 85.2591 175.152C78.7703 173.859 72.8443 176.152 72.0229 180.274C71.2015 184.396 75.7958 188.786 82.2846 190.079C88.7734 191.372 94.6995 189.079 95.5209 184.957Z" fill="#C17470"/>
<path d="M186.421 190.089C192.91 188.795 197.504 184.406 196.682 180.284C195.861 176.162 189.935 173.869 183.446 175.162C176.957 176.455 172.363 180.845 173.185 184.967C174.006 189.088 179.932 191.382 186.421 190.089Z" fill="#C17470"/>
</g>
<path d="M96.73 182.62C108.179 182.62 117.46 173.339 117.46 161.89C117.46 150.441 108.179 141.16 96.73 141.16C85.2811 141.16 76 150.441 76 161.89C76 173.339 85.2811 182.62 96.73 182.62Z" fill="#2A3A35"/>
<path d="M82.7399 149.91L67.1699 140.51C67.1699 159.99 75.2599 170.96 84.3699 178.54L87.4799 154.65L82.7299 149.9L82.7399 149.91Z" fill="#2A3A35"/>
<path d="M91.5601 169.87C91.5601 167.01 93.8801 167.98 96.7401 167.98C99.6001 167.98 101.92 167.01 101.92 169.87C101.92 172.73 99.6001 175.05 96.7401 175.05C93.8801 175.05 91.5601 172.73 91.5601 169.87Z" fill="#0FB43E"/>
<path d="M85.5098 159.97C85.5098 153.77 90.5298 148.75 96.7298 148.75C102.93 148.75 107.95 153.77 107.95 159.97C107.95 166.17 102.93 160.9 96.7298 160.9C90.5298 160.9 85.5098 166.16 85.5098 159.97Z" fill="#0FB43E"/>
<path d="M104.68 159.04C107.784 159.04 110.3 157.258 110.3 155.06C110.3 152.862 107.784 151.08 104.68 151.08C101.576 151.08 99.0601 152.862 99.0601 155.06C99.0601 157.258 101.576 159.04 104.68 159.04Z" fill="white"/>
<path d="M172.11 182.62C183.559 182.62 192.84 173.339 192.84 161.89C192.84 150.441 183.559 141.16 172.11 141.16C160.661 141.16 151.38 150.441 151.38 161.89C151.38 173.339 160.661 182.62 172.11 182.62Z" fill="#2A3A35"/>
<path d="M186.09 149.91L201.66 140.51C201.66 159.99 193.57 170.96 184.46 178.54L181.35 154.65L186.1 149.9L186.09 149.91Z" fill="#2A3A35"/>
<path d="M177.28 169.87C177.28 167.01 174.96 167.98 172.1 167.98C169.24 167.98 166.92 167.01 166.92 169.87C166.92 172.73 169.24 175.05 172.1 175.05C174.96 175.05 177.28 172.73 177.28 169.87Z" fill="#0FB43E"/>
<path d="M183.33 159.97C183.33 153.77 178.31 148.75 172.11 148.75C165.91 148.75 160.89 153.77 160.89 159.97C160.89 166.17 165.91 160.9 172.11 160.9C178.31 160.9 183.33 166.16 183.33 159.97Z" fill="#0FB43E"/>
<path d="M179.64 159.04C182.744 159.04 185.26 157.258 185.26 155.06C185.26 152.862 182.744 151.08 179.64 151.08C176.536 151.08 174.02 152.862 174.02 155.06C174.02 157.258 176.536 159.04 179.64 159.04Z" fill="white"/>
<path d="M159.06 190.87C163.49 190.87 166.96 194.79 166.3 199.17C166.3 199.2 166.3 199.22 166.29 199.25C159.6 243.45 109.11 243.45 102.43 199.25C102.43 199.22 102.43 199.2 102.42 199.17C101.76 194.79 105.23 190.87 109.66 190.87H159.07H159.06Z" fill="#B54845"/>
</g>
<defs>
<clipPath id="clip0_50_238">
<rect width="264.95" height="311.59" fill="white"/>
</clipPath>
</defs>
</svg>
