<svg width="342" height="272" viewBox="0 0 342 272" fill="none" xmlns="http://www.w3.org/2000/svg">
<g clip-path="url(#clip0_23_51)">
<path d="M279.159 92.3011C279.159 102.821 276.856 113.807 272.72 124.068C272.049 125.733 271.331 127.383 270.562 129.002C269.627 130.999 268.615 132.954 267.542 134.862C267.536 134.867 267.536 134.873 267.531 134.878C267.459 134.888 267.381 134.904 267.309 134.914H267.283C266.437 135.059 265.59 135.193 264.733 135.323C252.589 137.19 239.505 138.426 225.952 138.881C226.623 136.548 227.16 134.185 227.377 131.862C227.697 128.573 227.372 125.371 225.859 122.465C224.222 119.32 221.491 117.101 217.959 116.051L217.634 115.953L217.304 115.881C216.297 115.669 215.285 115.56 214.299 115.56C210.963 115.56 204.824 116.817 201.194 125.221C200.322 127.244 199.682 129.457 199.165 131.671C198.763 133.388 198.427 135.11 198.117 136.729C197.998 137.324 197.869 138.012 197.725 138.705C185.421 138.136 173.607 136.926 162.501 135.157C161.83 135.054 161.164 134.945 160.498 134.836C160.271 134.443 160.049 134.045 159.837 133.642C158.675 131.5 157.602 129.302 156.62 127.068C156.058 125.801 155.531 124.523 155.035 123.23C151.178 113.217 149.124 102.547 149.124 92.3011C149.124 66.0838 152.733 41.6457 177.242 30.3292C181.574 28.3276 186.562 26.7346 192.293 25.6226C193.238 25.4364 194.198 25.2657 195.184 25.1054C196.171 24.945 197.183 24.8002 198.215 24.6657C200.311 24.3968 202.501 24.1796 204.783 24.0244C206.017 23.9416 207.282 23.8744 208.573 23.8227C209.734 23.7813 210.917 23.7503 212.12 23.7348C212.786 23.7244 213.457 23.7192 214.139 23.7192C229.917 23.7192 241.922 26.1139 251.035 30.3292C275.55 41.6457 279.159 66.0838 279.159 92.3011Z" fill="#FFBDAB"/>
<path d="M199.166 131.671C198.763 133.388 198.427 135.11 198.117 136.729C197.999 137.324 197.87 138.012 197.725 138.705C185.421 138.136 173.608 136.926 162.502 135.157C161.83 135.054 161.164 134.945 160.498 134.836C160.271 134.443 160.049 134.045 159.837 133.642C158.676 131.5 157.602 129.302 156.621 127.068C156.058 125.801 155.531 124.523 155.036 123.23L155.722 114.029L157.096 95.5492H160.524C160.55 96.2371 160.591 96.9094 160.643 97.5715C162.6 123.225 181.043 129.938 199.166 131.671Z" fill="#ED8D77"/>
<path d="M272.72 124.068C272.049 125.733 271.332 127.383 270.562 129.002C269.628 130.999 268.616 132.954 267.542 134.862C267.537 134.867 267.537 134.873 267.531 134.878C267.459 134.888 267.382 134.904 267.309 134.914H267.284C266.437 135.059 265.59 135.193 264.733 135.323C252.589 137.19 239.506 138.426 225.952 138.881C226.623 136.548 227.16 134.185 227.377 131.862C246.419 130.419 266.189 123.985 266.375 96.6043C266.38 96.475 266.38 96.3405 266.38 96.2061L269.225 108.702L271.44 118.436L272.72 124.068Z" fill="#ED8D77"/>
<path d="M129.891 127.828C130.872 118.089 132.317 106.664 134.181 93.1958C137.909 66.2493 143.067 47.4177 149.294 34.7202C160.436 11.9786 175.001 8.93221 190.904 14.2077C192.035 14.5801 193.176 14.9991 194.322 15.4542C200.947 18.092 205.485 20.978 208.578 23.8278C210.251 25.3691 211.5 26.9 212.419 28.3741C216.524 34.9271 214.144 40.2957 214.144 40.2957C165.191 41.0767 152.743 64.9666 159.842 133.647C159.884 134.014 159.92 134.381 159.961 134.754L129.891 127.828Z" fill="#D19E61"/>
<path d="M159.956 137.34C158.66 137.34 157.54 136.362 157.395 135.038L157.276 133.936C152.877 91.3959 156.264 67.3147 168.594 53.4018C177.495 43.3576 191.369 38.3665 212.156 37.7562C212.404 36.0753 212.357 33.1427 210.235 29.7498C209.378 28.3741 208.232 27.0242 206.833 25.7311C203.647 22.7934 199.119 20.1453 193.372 17.8592C192.236 17.4092 191.131 17.0058 190.104 16.6645C172.802 10.9235 160.932 16.8455 151.617 35.8581C145.246 48.8504 140.243 68.256 136.742 93.5475C134.734 108.055 133.376 119.03 132.462 128.087C132.317 129.509 131.058 130.549 129.632 130.399C128.213 130.254 127.18 128.987 127.325 127.564C128.244 118.446 129.612 107.414 131.625 92.839C135.25 66.6372 140.274 47.2522 146.981 33.5772C157.38 12.351 172.012 5.21347 191.72 11.751C192.846 12.1182 194.043 12.5578 195.277 13.0492C201.613 15.5732 206.678 18.5575 210.328 21.9245C212.068 23.5278 213.509 25.2346 214.614 27.0035C219.39 34.6323 216.627 41.0767 216.508 41.3457C216.101 42.2663 215.197 42.8663 214.19 42.8818C193.868 43.2076 180.604 47.6401 172.461 56.8361C161.19 69.5594 158.185 92.4511 162.419 133.383L162.538 134.469C162.692 135.886 161.675 137.169 160.255 137.324C160.157 137.334 160.064 137.34 159.966 137.34H159.956Z" fill="#9E6E39"/>
<path d="M267.288 134.924C268.837 122.641 269.653 109.928 269.054 97.949C267.345 63.896 237.533 54.2552 214.144 40.2958C208.361 36.8408 202.971 33.1273 198.494 28.7155C197.327 27.5621 196.222 26.3622 195.19 25.1105C194.152 23.8537 193.191 22.5452 192.308 21.1746C190.522 19.0333 189.964 16.6076 190.904 14.2078C192.68 9.65117 199.836 5.20835 214.144 2.99987C242.071 0.0724683 259.802 12.8475 271.244 33.2204C280.873 50.3451 286.057 72.8437 289.124 95.9009C290.678 107.574 292.939 118.611 294.705 128.904L267.288 134.924Z" fill="#D19E61"/>
<path d="M295.139 131.449C293.771 131.681 292.469 130.797 292.185 129.452C292.175 129.416 292.165 129.375 292.16 129.338C291.623 126.22 291.05 123.085 290.445 119.765C289.072 112.224 287.652 104.419 286.563 96.2371C282.985 69.3526 277.238 49.1504 268.992 34.4875C256.637 12.4906 238.803 3.03607 214.469 5.56005C202.403 7.43235 197.157 10.6184 194.885 12.8941C193.966 13.8147 193.537 14.5905 193.336 15.0663C193.326 15.0922 193.315 15.1181 193.305 15.1439C192.954 16.0387 192.938 16.9231 193.269 17.8127C193.465 18.3765 193.806 18.9402 194.286 19.5143C194.353 19.5919 194.415 19.6798 194.472 19.7678C195.288 21.0298 196.196 22.2711 197.177 23.4606C197.508 23.8641 197.854 24.2675 198.215 24.6657C198.871 25.4105 199.573 26.1501 200.301 26.869C203.425 29.9464 207.271 32.9204 212.249 36.0857C213.054 36.6029 213.885 37.1201 214.753 37.6425C214.99 37.7873 215.228 37.927 215.465 38.0718C216.023 38.4028 216.581 38.7338 217.149 39.0648C220.448 40.9837 223.912 42.856 227.274 44.6817C248.34 56.1017 270.128 67.9095 271.631 97.8145C271.951 104.202 271.884 111.102 271.44 118.436C271.233 121.865 270.939 125.387 270.562 129.002C270.381 130.756 270.18 132.53 269.958 134.329C269.922 134.635 269.88 134.94 269.844 135.245C269.689 136.471 268.708 137.381 267.531 137.495C267.449 137.5 267.366 137.505 267.288 137.505C267.18 137.505 267.072 137.5 266.963 137.484C265.796 137.34 264.908 136.435 264.733 135.323C264.697 135.09 264.691 134.847 264.722 134.598C266.421 121.125 267.01 108.836 266.473 98.0731C266.447 97.5766 266.416 97.0905 266.375 96.6043C264.402 70.687 245.159 60.2549 224.816 49.228C221.047 47.1902 217.159 45.08 213.457 42.8922C213.245 42.768 213.028 42.6439 212.817 42.5146C211.65 41.8164 210.529 41.1285 209.461 40.4458C208.211 39.6493 207.029 38.8683 205.908 38.0873C202.279 35.5685 199.263 33.1066 196.682 30.5567C195.432 29.3206 194.26 28.0431 193.197 26.7553C192.892 26.3829 192.587 26.0053 192.293 25.6226C191.56 24.6709 190.863 23.6934 190.217 22.7003C188.524 20.6212 187.734 18.3092 187.884 15.987C187.935 15.1388 188.116 14.2854 188.431 13.4475C188.452 13.3854 188.472 13.3234 188.498 13.2613C188.787 12.5217 189.169 11.8028 189.649 11.1149C193.124 6.07209 201.53 2.3275 213.746 0.439686C213.787 0.434514 213.829 0.429342 213.87 0.42417C240.13 -2.32738 260.194 8.2754 273.489 31.948C282.066 47.2005 288.014 68.0026 291.679 95.5543C292.753 103.618 294.163 111.355 295.526 118.839C296.135 122.17 296.708 125.32 297.245 128.464C297.488 129.871 296.543 131.206 295.139 131.449Z" fill="#9E6E39"/>
<path d="M228.688 81.8017C235.416 74.7573 244.741 77.6744 249.594 81.2638C251.05 82.3396 250.193 84.4291 248.283 84.4602L230.335 84.7705C228.564 84.8015 227.552 82.9913 228.688 81.8069V81.8017Z" fill="#9E6E39"/>
<path d="M199.599 81.8017C192.871 74.7573 183.546 77.6744 178.693 81.2638C177.237 82.3396 178.094 84.4291 180.004 84.4602L197.952 84.7705C199.722 84.8015 200.734 82.9913 199.599 81.8069V81.8017Z" fill="#9E6E39"/>
<g opacity="0.4">
<path d="M188.389 122.123C188.934 119.384 185.889 116.467 181.588 115.608C177.287 114.749 173.358 116.274 172.813 119.014C172.268 121.754 175.313 124.671 179.614 125.529C183.915 126.388 187.844 124.863 188.389 122.123Z" fill="#C17470"/>
<path d="M248.67 125.54C252.971 124.681 256.016 121.764 255.471 119.024C254.926 116.284 250.998 114.759 246.697 115.618C242.395 116.477 239.351 119.394 239.896 122.133C240.441 124.873 244.369 126.398 248.67 125.54Z" fill="#C17470"/>
</g>
<path d="M189.195 120.566C196.786 120.566 202.94 114.402 202.94 106.798C202.94 99.1945 196.786 93.0303 189.195 93.0303C181.604 93.0303 175.451 99.1945 175.451 106.798C175.451 114.402 181.604 120.566 189.195 120.566Z" fill="#2A3A35"/>
<path d="M179.922 98.8385L169.601 92.5958C169.601 105.536 174.97 112.824 181.006 117.856L183.071 101.988L179.927 98.8385H179.922Z" fill="#2A3A35"/>
<path d="M185.761 112.095C185.761 110.196 187.3 110.838 189.195 110.838C191.09 110.838 192.628 110.196 192.628 112.095C192.628 113.993 191.09 115.534 189.195 115.534C187.3 115.534 185.761 113.993 185.761 112.095Z" fill="#0FB43E"/>
<path d="M181.755 105.521C181.755 101.404 185.085 98.0679 189.195 98.0679C193.305 98.0679 196.635 101.404 196.635 105.521C196.635 109.638 193.305 106.141 189.195 106.141C185.085 106.141 181.755 109.638 181.755 105.521Z" fill="#0FB43E"/>
<path d="M194.461 104.9C196.52 104.9 198.189 103.717 198.189 102.257C198.189 100.798 196.52 99.6144 194.461 99.6144C192.402 99.6144 190.733 100.798 190.733 102.257C190.733 103.717 192.402 104.9 194.461 104.9Z" fill="#0fb43e"/>
<path d="M239.175 120.566C246.765 120.566 252.919 114.402 252.919 106.798C252.919 99.1945 246.765 93.0303 239.175 93.0303C231.584 93.0303 225.43 99.1945 225.43 106.798C225.43 114.402 231.584 120.566 239.175 120.566Z" fill="#2A3A35"/>
<path d="M248.448 98.8385L258.769 92.5958C258.769 105.536 253.399 112.824 247.364 117.856L245.298 101.988L248.443 98.8385H248.448Z" fill="#2A3A35"/>
<path d="M242.608 112.095C242.608 110.196 241.07 110.838 239.175 110.838C237.28 110.838 235.741 110.196 235.741 112.095C235.741 113.993 237.28 115.534 239.175 115.534C241.07 115.534 242.608 113.993 242.608 112.095Z" fill="#0FB43E"/>
<path d="M246.615 105.521C246.615 101.404 243.284 98.0679 239.175 98.0679C235.065 98.0679 231.734 101.404 231.734 105.521C231.734 109.638 235.065 106.141 239.175 106.141C243.284 106.141 246.615 109.638 246.615 105.521Z" fill="#0FB43E"/>
<path d="M244.167 104.9C246.226 104.9 247.895 103.717 247.895 102.257C247.895 100.798 246.226 99.6144 244.167 99.6144C242.108 99.6144 240.439 100.798 240.439 102.257C240.439 103.717 242.108 104.9 244.167 104.9Z" fill="#0fb43e"/>
<path d="M25.0002 257.88C-22.7233 249.17 9.3144 175.841 27.4372 151.418C40.8048 133.047 57.9208 115.741 80.0709 108.805C96.5415 103.354 121.49 112.172 115.914 133.14C114.386 139.615 107.322 155.514 99.7117 155.457C96.9546 155.137 94.8738 152.375 95.2972 149.628C96.1543 145.998 99.3761 144.679 101.003 141.534C104.885 135.54 110.183 124.792 101.798 120.303C86.0499 112.131 68.6447 124.404 56.5215 134.128C30.6229 158.281 10.9202 192.619 10.5381 228.689C17.6168 280.001 92.0495 215.479 95.8238 190.286C88.6986 186.935 93.9547 177.201 100.848 180.397C107.451 179.813 114.2 177.423 120.917 179.063C139.437 184.685 122.843 207.426 119.518 218.893C130.799 210.954 135.87 197.419 142.355 185.792C145.432 181.67 152.382 184.556 151.576 189.66C148.876 198.562 144.286 207.121 143.47 216.535C155.66 210.633 160.472 196.606 166.937 185.626C177.872 173.368 183.64 194.714 184.099 203.237C189.34 194.548 193.713 185.337 195.525 175.297C199.052 161.033 199.429 161.007 203.838 147.001C207.204 141.017 206.234 121.994 215.61 123.97C224.517 126.628 214.242 143.851 214.154 150.606C210.85 164.829 211.748 165.165 206.714 178.892C202.707 188.791 199.377 199.668 200.534 210.452C209.533 203.273 211.335 190.509 217.557 181.333C220.019 178.747 224.682 179.668 226.009 182.988C227.305 189.128 223.629 195.36 223.329 201.577C228.936 193.333 232.086 182.673 240.435 176.689C250.932 170.219 256.141 183.314 256.704 191.859C270.268 165.419 285.974 175.747 283.47 201.918C289.315 191.243 304.923 166.464 316.169 185.228C317.97 189.117 317.062 193.617 319.416 197.341C319.958 198.194 320.356 199.13 320.929 199.974C321.502 200.817 322.158 201.634 322.87 202.379C324.27 203.853 325.917 205.099 327.755 205.978C328.627 206.397 329.541 206.728 330.476 206.961C331.41 207.194 332.562 207.204 333.274 207.897C333.429 208.047 333.548 208.228 333.656 208.414C334.395 209.697 334.477 211.342 333.868 212.692C333.223 214.124 331.86 215.169 330.357 215.619C328.065 216.307 325.493 215.728 323.345 214.833C321.198 213.938 319.101 212.604 317.263 211.078C316.788 210.68 316.323 210.271 315.874 209.842C315.735 209.713 314.625 208.766 314.671 208.621C310.603 220.652 295.036 222.71 290.781 209.718C287.771 216.028 277.119 227.437 272.405 216.69C271.419 207.08 275.075 197.139 272.157 187.571C265.316 195.163 261.903 205.151 256.967 213.974C254.928 219.964 246.723 221.148 245.391 214.114C245.598 204.877 248.334 195.257 244.916 186.221C237.693 193.064 224.961 231.585 213.189 211.978C208.382 221.303 192.928 225.974 190.414 212.562C186.175 218.914 173.592 234.358 167.732 222.126C167.623 211.761 177.774 214.564 172.477 197.082C167.897 208.709 144.172 241.733 133.52 220.077C127.242 229.061 107.627 238.438 108.634 220.057C110.503 209.335 118.098 200.222 119.136 189.293C114.871 188.145 110.41 189.464 106.161 190.121C104.519 215.795 51.632 263.187 25.0002 257.865V257.88ZM305.207 207.711C307.794 203.573 308.914 198.127 308.377 193.115C308.021 189.8 303.529 189.019 302.032 191.998C299.734 196.57 298.18 201.97 298.96 206.537C299.486 209.594 303.565 210.344 305.207 207.711Z" fill="#0fb43e"/>
<path d="M222.663 167.41C222.663 164.591 225.012 162.238 227.826 162.238C230.64 162.238 232.989 164.591 232.989 167.41C232.989 170.229 230.64 172.582 227.826 172.582C225.012 172.582 222.663 170.229 222.663 167.41Z" fill="#0fb43e"/>
<path d="M141.616 171.982C141.616 169.163 143.965 166.81 146.779 166.81C149.593 166.81 151.943 169.163 151.943 171.982C151.943 174.801 149.593 177.154 146.779 177.154C143.965 177.154 141.616 174.801 141.616 171.982Z" fill="#0fb43e"/>
<path d="M145.102 157.485C144.91 154.707 147.089 152.116 149.898 151.971C160.792 151.397 171.687 150.828 182.581 150.254C193.718 149.665 204.855 149.08 215.987 148.496C227.191 147.906 238.395 147.317 249.6 146.727C260.406 146.158 271.218 145.589 282.024 145.02C289.454 144.627 296.879 144.239 304.309 143.846C304.469 143.836 304.629 143.831 304.789 143.82C307.598 143.681 310.097 145.77 310.293 148.625C310.484 151.402 308.305 153.994 305.496 154.139C305.352 154.144 305.202 154.154 305.057 154.159C305.026 154.159 304.995 154.159 304.964 154.164C304.944 154.164 304.923 154.164 304.903 154.164C296.832 154.588 288.762 155.013 280.687 155.437C269.793 156.011 258.898 156.585 248.004 157.154C236.944 157.738 225.885 158.318 214.82 158.902C203.554 159.497 192.288 160.086 181.017 160.681C171.016 161.209 161.014 161.731 151.013 162.259C150.982 162.259 150.957 162.259 150.926 162.264C150.9 162.264 150.869 162.264 150.843 162.264C150.76 162.264 150.683 162.274 150.6 162.274C150.507 162.274 150.414 162.279 150.322 162.279C147.626 162.279 145.282 160.221 145.091 157.469L145.102 157.485Z" fill="#0fb43e"/>
<path d="M87.1133 272C84.919 272 82.8537 270.655 82.0379 268.478C80.9846 265.669 82.3993 262.54 85.2029 261.485C165.274 231.316 252.439 221.215 337.275 232.273C340.244 232.661 342.341 235.387 341.953 238.361C341.566 241.335 338.85 243.435 335.876 243.047C252.8 232.216 167.437 242.111 89.0185 271.653C88.3886 271.891 87.7432 272 87.1133 272Z" fill="#0fb43e"/>
</g>
<defs>
<clipPath id="clip0_23_51">
<rect width="342" height="272" fill="white"/>
</clipPath>
</defs>
</svg>
