<svg width="570" height="274" viewBox="0 0 570 274" fill="none" xmlns="http://www.w3.org/2000/svg">
<g clip-path="url(#clip0_62_20)">
<path d="M41.6824 250.307C-37.7347 235.838 15.5795 114.019 45.7379 73.4465C67.9743 42.9273 96.4658 14.178 133.317 2.65595C160.726 -6.40016 202.244 8.24942 192.964 43.0819C190.421 53.8393 178.667 80.2515 166.002 80.157C161.414 79.6242 157.951 75.0361 158.656 70.4736C160.082 64.442 165.443 62.251 168.15 57.0269C174.611 47.0687 183.427 29.2142 169.473 21.7563C143.267 8.18069 114.303 28.5698 94.1288 44.723C51.0306 84.8569 18.2431 141.909 17.5986 201.83C29.3785 287.073 153.243 179.886 159.523 138.034C147.666 132.466 156.413 116.295 167.884 121.605C178.873 120.634 190.103 116.665 201.281 119.389C232.101 128.728 204.486 166.508 198.953 185.557C217.727 172.368 226.164 149.882 236.956 130.567C242.077 123.719 253.642 128.513 252.301 136.994C247.808 151.781 240.169 166.001 238.812 181.639C259.098 171.835 267.106 148.533 277.863 130.292C296.061 109.929 305.658 145.388 306.423 159.548C315.144 145.113 322.422 129.811 325.438 113.134C331.306 89.4365 331.933 89.3935 339.271 66.126C344.873 56.1849 343.258 24.5831 358.861 27.8653C373.682 32.2816 356.584 60.8934 356.438 72.1147C350.939 95.7431 352.434 96.3016 344.057 119.105C337.389 135.55 331.847 153.62 333.772 171.534C348.748 159.608 351.747 138.403 362.1 123.161C366.199 118.865 373.957 120.394 376.165 125.91C378.322 136.109 372.204 146.462 371.706 156.79C381.037 143.094 386.278 125.386 400.172 115.445C417.64 104.696 426.309 126.451 427.246 140.646C449.817 96.7226 475.955 113.881 471.787 157.357C481.514 139.623 507.488 98.4582 526.201 129.63C529.2 136.092 527.688 143.567 531.606 149.753C532.508 151.171 533.17 152.726 534.123 154.127C535.094 155.544 536.168 156.885 537.354 158.122C539.682 160.571 542.423 162.641 545.482 164.102C546.934 164.798 548.455 165.348 550.01 165.735C551.531 166.104 553.481 166.138 554.667 167.29C554.925 167.539 555.122 167.84 555.303 168.149C556.532 170.28 556.669 173.012 555.655 175.255C554.581 177.635 552.313 179.37 549.812 180.118C545.998 181.261 541.719 180.298 538.144 178.812C534.476 177.282 531.082 175.109 528.023 172.574C527.232 171.912 526.459 171.234 525.712 170.52C525.48 170.306 523.632 168.733 523.71 168.493C516.939 188.478 491.034 191.898 483.954 170.314C478.945 180.797 461.219 199.751 453.374 181.896C451.733 165.932 457.817 149.418 452.962 133.523C441.577 146.136 435.898 162.727 427.684 177.386C424.29 187.335 410.637 189.303 408.42 177.617C408.764 162.272 413.318 146.291 407.63 131.28C395.609 142.648 374.421 206.642 354.831 174.069C346.832 189.561 321.116 197.319 316.931 175.04C309.877 185.591 288.938 211.247 279.186 190.927C279.006 173.708 295.898 178.365 287.082 149.324C279.461 168.639 239.98 223.499 222.255 187.524C211.807 202.449 179.165 218.026 180.841 187.49C183.951 169.678 196.59 154.539 198.317 136.384C191.22 134.476 183.796 136.667 176.725 137.759C173.993 180.41 85.9834 259.14 41.6652 250.298L41.6824 250.307ZM507.977 166.955C512.282 160.081 514.147 151.033 513.253 142.708C512.66 137.2 505.185 135.903 502.693 140.852C498.87 148.447 496.284 157.417 497.581 165.004C498.457 170.082 505.245 171.328 507.977 166.955Z" fill="white"/>
<path d="M370.615 100.005C370.615 95.322 374.524 91.4126 379.207 91.4126C383.89 91.4126 387.799 95.322 387.799 100.005C387.799 104.687 383.89 108.597 379.207 108.597C374.524 108.597 370.615 104.687 370.615 100.005Z" fill="white"/>
<path d="M235.744 107.609C235.744 102.926 239.653 99.0166 244.336 99.0166C249.019 99.0166 252.928 102.926 252.928 107.609C252.928 112.291 249.019 116.201 244.336 116.201C239.653 116.201 235.744 112.291 235.744 107.609Z" fill="white"/>
<path d="M241.544 83.5249C241.226 78.9109 244.852 74.6062 249.526 74.3657C267.655 73.4119 285.785 72.4668 303.914 71.5131C322.447 70.5336 340.98 69.5626 359.505 68.5917C378.15 67.6122 396.795 66.6327 415.44 65.6532C433.423 64.7081 451.415 63.763 469.398 62.8178C481.763 62.1648 494.118 61.5204 506.482 60.8674C506.748 60.8502 507.015 60.8416 507.281 60.8245C511.955 60.5925 516.114 64.0637 516.44 68.8065C516.758 73.4205 513.132 77.7252 508.458 77.9657C508.218 77.9743 507.969 77.9915 507.728 78.0001C507.676 78.0001 507.625 78.0001 507.573 78.0087C507.539 78.0087 507.505 78.0087 507.47 78.0087C494.041 78.7133 480.611 79.4178 467.173 80.1224C449.044 81.0761 430.914 82.0298 412.785 82.975C394.381 83.9459 375.976 84.9082 357.563 85.8791C338.815 86.8672 320.067 87.8467 301.311 88.8348C284.668 89.7112 268.025 90.579 251.382 91.4554C251.33 91.4554 251.287 91.4554 251.236 91.464C251.193 91.464 251.141 91.464 251.098 91.464C250.961 91.464 250.832 91.4812 250.694 91.4812C250.54 91.4812 250.385 91.4898 250.23 91.4898C245.745 91.4898 241.844 88.0701 241.527 83.4991L241.544 83.5249Z" fill="white"/>
<path d="M145.045 273.763C141.394 273.763 137.957 271.529 136.599 267.912C134.847 263.246 137.201 258.048 141.866 256.295C275.113 206.178 420.165 189.397 561.343 207.767C566.283 208.412 569.772 212.94 569.127 217.88C568.483 222.821 563.963 226.309 559.014 225.665C420.767 207.673 278.713 224.109 148.216 273.188C147.168 273.583 146.094 273.763 145.045 273.763Z" fill="white"/>
</g>
<defs>
<clipPath id="clip0_62_20">
<rect width="569.126" height="273.728" fill="white" transform="translate(0.0789795 0.0351562)"/>
</clipPath>
</defs>
</svg>
