<svg width="87" height="100" viewBox="0 0 87 100" fill="none" xmlns="http://www.w3.org/2000/svg">
<g clip-path="url(#clip0_50_371)">
<path d="M84.0342 56.5243C83.4293 53.2108 82.8035 49.784 82.3327 46.2588C80.4286 31.9795 77.127 21.4011 72.2341 13.9188C66.197 4.68131 57.7313 0 47.0695 0C45.7792 0 44.4413 0.0715158 43.1212 0.208588C43.0229 0.217527 42.9245 0.232426 42.85 0.244346C37.6294 1.04592 33.8271 2.47326 31.3181 4.57701C30.0249 4.33565 28.7644 4.21645 27.5576 4.21645C24.5181 4.21645 21.6784 4.97333 19.1157 6.46622C10.8735 11.2667 5.64689 23.5168 2.67005 45.0192C-0.0713944 64.7874 -0.977262 75.4373 1.26655 82.4816C3.86496 90.6344 9.97658 93.0063 18.4333 96.2931C19.9441 96.8801 21.5085 97.488 23.2368 98.1942C23.8507 98.4445 24.4943 98.5727 25.1558 98.5727C26.5057 98.5727 27.7781 98.0482 28.7346 97.0947C30.1828 95.6524 30.6208 93.495 29.858 91.6177C29.8371 91.5641 28.2757 87.5771 26.6815 79.7253C31.7621 83.155 37.5489 84.9757 43.6218 84.9757C49.206 84.9757 54.5816 83.4173 59.3821 80.4732C57.5942 88.0271 55.8689 93.2596 55.8451 93.3311C55.2491 95.1161 55.6871 97.0679 56.9833 98.4296C57.9339 99.4279 59.2719 100.003 60.6515 100.003C61.1134 100.003 61.5723 99.9404 62.0222 99.8153C74.8742 96.2007 82.139 90.4556 84.8864 81.7366C87.2614 74.1977 85.7685 66.021 84.0372 56.5303L84.0342 56.5243Z" fill="#0FB43E"/>
<path d="M72.836 45.3143C72.836 29.1786 69.7847 14.5476 43.6188 14.5476C17.453 14.5476 14.4016 29.1786 14.4016 45.3143C14.4016 61.4501 25.7786 79.9101 43.6188 79.9101C61.459 79.9101 72.836 61.4501 72.836 45.3143Z" fill="#FFBDAB"/>
<path d="M43.6187 81.3999C25.2511 81.3999 12.9116 62.7403 12.9116 45.3142C12.9116 37.817 13.5135 29.3036 17.9833 23.0162C22.748 16.3146 31.1333 13.0576 43.6187 13.0576C56.1042 13.0576 64.4894 16.3146 69.2542 23.0162C73.7239 29.3036 74.3258 37.817 74.3258 45.3142C74.3258 62.7403 61.9864 81.3999 43.6187 81.3999ZM43.6187 16.0374C18.031 16.0374 15.8914 30.5015 15.8914 45.3142C15.8914 61.301 27.033 78.4201 43.6187 78.4201C60.2044 78.4201 71.346 61.301 71.346 45.3142C71.346 30.5015 69.2065 16.0374 43.6187 16.0374Z" fill="#ED8D77"/>
<path d="M43.6187 21.9821C20.5906 22.3486 15.5398 34.0772 19.7205 68.3184C21.7915 85.2617 25.1557 93.5099 25.1557 93.5099C5.14916 85.3184 1.78196 88.3309 7.68499 45.7164C12.5719 10.4264 22.9357 6.15627 34.712 10.8376C46.4883 15.5189 43.6187 21.9821 43.6187 21.9821Z" fill="#D19E61"/>
<path d="M25.1558 94.9999C24.965 94.9999 24.7743 94.9641 24.5926 94.8896C22.8494 94.1745 21.2641 93.5606 19.7295 92.9647C11.6393 89.8209 6.75532 87.9228 4.6754 81.4C2.6521 75.0529 3.60565 64.3345 6.21001 45.5139C8.98721 25.4656 13.7967 13.7043 20.9155 9.55932C24.9025 7.23803 29.5957 7.20227 35.2633 9.45502C40.3201 11.4664 43.5383 14.0827 44.8256 17.2353C46.0056 20.1258 45.0908 22.3428 44.9835 22.5871C44.7481 23.1175 44.2266 23.4632 43.6456 23.4721C34.5422 23.6181 28.6332 25.6027 25.0455 29.7208C19.798 35.7431 18.6508 47.2333 21.2045 68.1367C23.2189 84.6331 26.5056 92.8663 26.5384 92.9468C26.7649 93.501 26.6337 94.1387 26.2106 94.5619C25.9245 94.8449 25.5461 94.9969 25.1587 94.9969L25.1558 94.9999ZM27.5813 10.7602C25.6832 10.7602 23.9847 11.2161 22.4143 12.1309C16.1388 15.7842 11.8061 26.8364 9.16302 45.9192C6.67487 63.8875 5.67365 74.7192 7.51518 80.4911C9.16302 85.6581 13.0547 87.1719 20.8082 90.1845C21.4071 90.4169 22.0418 90.6642 22.7004 90.9235C21.5174 87.0735 19.6103 79.6687 18.2455 68.5003C15.5428 46.381 16.8629 34.5779 22.7987 27.7631C26.8155 23.1533 33.0732 20.838 42.4298 20.5221C42.4715 19.9649 42.4179 19.1812 42.0335 18.2783C41.0472 15.9719 38.3266 13.8771 34.1667 12.2233C31.7144 11.2489 29.545 10.7602 27.5873 10.7602H27.5813Z" fill="#9E6E39"/>
<path d="M33.806 13.4034C42.2598 26.5385 67.2367 26.8215 68.2945 47.8442C69.3524 68.8699 60.6483 94.9314 60.6483 94.9314C89.2844 86.877 80.333 69.5731 77.3145 46.9264C74.2959 24.2797 66.7212 2.83394 43.6186 5.25058C33.806 6.76135 31.4758 10.6143 33.806 13.4034Z" fill="#D19E61"/>
<path d="M60.6484 96.4243C60.2461 96.4243 59.8558 96.2604 59.5697 95.9625C59.1883 95.5632 59.0601 94.9851 59.2359 94.4636C59.3224 94.2044 67.8357 68.4169 66.8077 47.9217C66.2087 35.9934 57.4898 31.2764 48.2583 26.2822C42.2986 23.058 36.1393 19.7236 32.6023 14.2854C31.4878 12.9087 31.1928 11.3145 31.7679 9.78884C32.5397 7.74468 35.1828 5.04496 43.3922 3.78151C43.416 3.77853 43.4399 3.77555 43.4637 3.77258C54.5576 2.61342 63.2319 6.68685 69.2422 15.8796C73.8341 22.9031 76.957 32.9957 78.7896 46.7357C79.2723 50.3532 79.907 53.8307 80.5208 57.1919C82.1627 66.194 83.5841 73.9684 81.4744 80.661C79.1233 88.1225 72.6332 93.1137 61.0507 96.3707C60.9166 96.4064 60.7825 96.4273 60.6484 96.4273V96.4243ZM43.8094 6.72856C37.7782 7.66125 35.0725 9.46404 34.554 10.8377C34.4795 11.0314 34.259 11.6214 34.9474 12.4469C34.9861 12.4945 35.0219 12.5422 35.0576 12.5958C38.1716 17.4351 43.7587 20.4566 49.6737 23.657C58.7771 28.5826 69.0962 34.1668 69.7816 47.7697C70.6517 65.0914 65.1122 85.4139 62.916 92.6817C71.7661 89.7525 76.7871 85.6076 78.6316 79.7582C80.5179 73.7687 79.162 66.3311 77.5887 57.7194C76.9689 54.3224 76.3282 50.8091 75.8366 47.1201C71.9151 17.7062 61.739 4.86915 43.8094 6.72558V6.72856Z" fill="#9E6E39"/>
<path d="M50.1535 40.6031C53.178 37.4445 57.3676 38.7497 59.5489 40.3618C60.2044 40.8445 59.817 41.7802 58.9618 41.7951L50.8954 41.9321C50.0998 41.947 49.6439 41.1365 50.1535 40.6031Z" fill="#9E6E39"/>
<path d="M37.084 40.6031C34.0595 37.4445 29.8699 38.7497 27.6886 40.3618C27.0331 40.8445 27.4204 41.7802 28.2756 41.7951L36.342 41.9321C37.1376 41.947 37.5936 41.1365 37.084 40.6031Z" fill="#9E6E39"/>
<g opacity="0.4">
<path d="M32.0477 58.6924C32.2925 57.4642 30.9234 56.1561 28.9899 55.7708C27.0563 55.3855 25.2905 56.0688 25.0457 57.2971C24.801 58.5253 26.17 59.8334 28.1035 60.2187C30.0371 60.604 31.8029 59.9206 32.0477 58.6924Z" fill="#C17470"/>
<path d="M59.1337 60.2219C61.0672 59.8366 62.4363 58.5285 62.1915 57.3003C61.9467 56.072 60.1809 55.3887 58.2473 55.774C56.3138 56.1593 54.9448 57.4674 55.1895 58.6956C55.4343 59.9238 57.2001 60.6072 59.1337 60.2219Z" fill="#C17470"/>
</g>
<path d="M32.4057 57.9933C35.8173 57.9933 38.5829 55.2277 38.5829 51.8161C38.5829 48.4045 35.8173 45.6389 32.4057 45.6389C28.9941 45.6389 26.2285 48.4045 26.2285 51.8161C26.2285 55.2277 28.9941 57.9933 32.4057 57.9933Z" fill="#2A3A35"/>
<path d="M28.2399 48.2464L23.6003 45.4453C23.6003 51.25 26.011 54.5189 28.7256 56.7776L29.6524 49.6588L28.237 48.2434L28.2399 48.2464Z" fill="#2A3A35"/>
<path d="M30.8652 54.1941C30.8652 53.3419 31.5566 53.631 32.4088 53.631C33.261 53.631 33.9523 53.3419 33.9523 54.1941C33.9523 55.0464 33.261 55.7377 32.4088 55.7377C31.5566 55.7377 30.8652 55.0464 30.8652 54.1941Z" fill="#0FB43E"/>
<path d="M29.0623 51.244C29.0623 49.3965 30.5581 47.9006 32.4056 47.9006C34.2531 47.9006 35.749 49.3965 35.749 51.244C35.749 53.0915 34.2531 51.5211 32.4056 51.5211C30.5581 51.5211 29.0623 53.0885 29.0623 51.244Z" fill="#0FB43E"/>
<path d="M34.7748 50.9669C35.6996 50.9669 36.4494 50.4359 36.4494 49.7809C36.4494 49.1259 35.6996 48.595 34.7748 48.595C33.8499 48.595 33.1001 49.1259 33.1001 49.7809C33.1001 50.4359 33.8499 50.9669 34.7748 50.9669Z" fill="white"/>
<path d="M54.8676 57.9933C58.2792 57.9933 61.0448 55.2277 61.0448 51.8161C61.0448 48.4045 58.2792 45.6389 54.8676 45.6389C51.4561 45.6389 48.6904 48.4045 48.6904 51.8161C48.6904 55.2277 51.4561 57.9933 54.8676 57.9933Z" fill="#2A3A35"/>
<path d="M59.0365 48.2464L63.6761 45.4453C63.6761 51.25 61.2654 54.5189 58.5507 56.7776L57.624 49.6588L59.0394 48.2434L59.0365 48.2464Z" fill="#2A3A35"/>
<path d="M56.4081 54.1941C56.4081 53.3419 55.7168 53.631 54.8646 53.631C54.0124 53.631 53.321 53.3419 53.321 54.1941C53.321 55.0464 54.0124 55.7377 54.8646 55.7377C55.7168 55.7377 56.4081 55.0464 56.4081 54.1941Z" fill="#0FB43E"/>
<path d="M58.2109 51.244C58.2109 49.3965 56.715 47.9006 54.8675 47.9006C53.02 47.9006 51.5242 49.3965 51.5242 51.244C51.5242 53.0915 53.02 51.5211 54.8675 51.5211C56.715 51.5211 58.2109 53.0885 58.2109 51.244Z" fill="#0FB43E"/>
<path d="M57.1114 50.9669C58.0363 50.9669 58.7861 50.4359 58.7861 49.7809C58.7861 49.1259 58.0363 48.595 57.1114 48.595C56.1865 48.595 55.4368 49.1259 55.4368 49.7809C55.4368 50.4359 56.1865 50.9669 57.1114 50.9669Z" fill="white"/>
<path d="M50.979 60.4519C52.299 60.4519 53.333 61.62 53.1364 62.9252C53.1364 62.9341 53.1364 62.9401 53.1334 62.949C51.1399 76.1198 36.0947 76.1198 34.1042 62.949C34.1042 62.9401 34.1042 62.9341 34.1012 62.9252C33.9046 61.62 34.9386 60.4519 36.2586 60.4519H50.9819H50.979Z" fill="#B54845"/>
</g>
<defs>
<clipPath id="clip0_50_371">
<rect width="86.117" height="100" fill="white"/>
</clipPath>
</defs>
</svg>
